<svg version="1" id="Слой_1" xmlns="http://www.w3.org/2000/svg" viewBox="0 0 1000 1000"><style>.st0{fill:#333}</style><path class="st0" d="M678 448c-6-14-13-27-23-38-17-17-39-28-62-34-42-11-92-6-120 32-4 4-7 10-9 15-3 7 7 13 10 6 9-18 23-32 42-39 17-7 37-9 56-6s37 9 53 18c23 13 38 36 46 60 12 44-9 89-43 116-19 16-43 24-67 27-27 3-54 1-74-20-14-15-12-42-2-59 5-9 14-15 23-18 12-4 24-3 36-1 7 1 13 4 19 7 5 2 11-1 9-7-9-28-38-42-65-46-28-5-54 4-76 21-11 8-19 18-28 28a267 267 0 0 1-94 63c-27 9-57 13-85 9-8-1-11 10-3 11 49 8 99-6 140-33 21-14 40-30 57-48 8-10 17-19 28-26s24-12 37-14c15-2 31 1 46 7 9 4 18 10 24 17l-5-1-23-2c-12 0-24 3-34 10-23 15-30 46-23 71 6 23 30 38 53 42 16 3 33 2 49 0 14-3 28-6 41-12 44-21 77-69 75-119 0-13-3-25-8-37zM458 373l10 10c6 4 12-6 6-11h-1l-1-2-5-6c-7-8-13-16-18-25-5-6-15 0-11 6l20 28zM544 356c-2-14-2-28-2-41 1-8-11-8-12 0l3 44c1 8 12 4 11-3zM622 377l31-43c4-6-6-12-11-6l-29 40c-4 6 4 15 9 9zM681 424c17-6 33-14 49-22 7-4 1-14-6-11a852 852 0 0 1-37 18l-2 1-7 2c-7 2-4 14 3 12zM750 493l-9-1-16-2-28-5c-7-1-10 11-3 12l29 5 16 2 11 1c8 0 8-12 0-12z"/></svg>