<?xml version="1.0" encoding="utf-8"?>
<!-- Generator: Adobe Illustrator 21.0.0, SVG Export Plug-In . SVG Version: 6.00 Build 0)  -->
<svg version="1.1" id="Слой_1" xmlns="http://www.w3.org/2000/svg" xmlns:xlink="http://www.w3.org/1999/xlink" x="0px" y="0px"
	 viewBox="0 0 1000 1000" style="enable-background:new 0 0 1000 1000;" xml:space="preserve">
<style type="text/css">
	.st0{fill:#333333;}
</style>
<g>
	<path class="st0" d="M677.9,448.3c-5.9-13.9-12.8-26.9-23.2-38.1c-16.3-17.5-38.7-28.2-61.5-34.2c-42.3-11.2-92.3-5.6-120.1,31.7
		c-3.6,4.8-6.6,10-9.2,15.4c-3.3,6.9,7,13,10.4,6.1c8.6-17.9,22.7-32.1,41.3-39.5c17.9-7.1,37.8-8.2,56.7-5.6
		c18.6,2.6,36.9,8.6,53.2,18c22.5,13,37.7,35.8,45,60.4c12.9,43.1-8.7,89-42.5,116c-19.4,15.5-42.6,23.5-67.1,26.1
		c-26.8,2.9-54.3,1.5-73.8-19.5c-13.8-14.8-12.2-42.4-2.1-59c5.3-8.7,13.7-15.1,23.4-18.3c11.8-3.9,23.5-3,35.7-1.2
		c6.9,1,12.8,4.8,19.1,7.6c4.4,2,10.5-1.3,8.8-6.8c-8.8-28.1-37.6-42.4-65-46.7c-27.6-4.3-54.4,4.6-76.3,21.4
		c-10.5,8-18.3,18-27.3,27.5c-8.8,9.3-18.3,18-28.3,25.9c-19.9,15.8-42.5,28.7-66.4,37.2c-27.1,9.6-56.3,13.4-84.9,9.1
		c-7.6-1.1-10.8,10.4-3.2,11.6c49.6,7.4,99.2-6.7,140.9-33.6c20.8-13.4,39.8-29.7,56.3-48.2c8.7-9.8,17.1-18.7,28.3-25.7
		c11.1-6.9,23.5-12.3,36.5-13.9c15.8-2,31.5,1.4,46.1,7.4c9.4,3.9,17.9,9.3,24.1,16.9c-1.5-0.5-3-0.9-4.6-1.2
		c-7.5-1.4-15.4-2.4-23-2.2c-11.9,0.4-24.1,3.4-34,10.1c-22.9,15.3-29.7,45.6-23,71.3c6,23.1,30.2,37.8,52.5,42
		c16.3,3,33.3,1.5,49.6-0.8c14-2.1,27.7-5.8,40.5-11.9c44.1-21.1,77.6-69.1,75.7-118.8C685.6,472.1,682.8,459.9,677.9,448.3z"/>
	<path class="st0" d="M458,372.8c2.8,3.6,5.8,7.2,9.6,9.9c6.4,4.4,12.4-6,6.1-10.4c-0.1-0.1-0.2-0.1-0.2-0.2
		c-0.1-0.1-0.2-0.2-0.3-0.3c-0.5-0.5-1.1-1-1.6-1.6c-1.8-1.9-3.4-3.9-5-5.9c-6.4-8.1-12.2-16.8-18-25.3c-4.3-6.3-14.7-0.3-10.4,6.1
		C444.6,354.5,451,363.9,458,372.8z"/>
	<path class="st0" d="M544.2,355.7c-1.9-13.6-2.5-27.3-1.9-41c0.3-7.7-11.7-7.7-12,0c-0.6,14.8,0.3,29.5,2.4,44.2
		C533.7,366.5,545.3,363.3,544.2,355.7z"/>
	<path class="st0" d="M621.7,376.7c10.9-13.7,21.3-27.9,31-42.4c4.3-6.4-6.1-12.5-10.4-6.1c-9.2,13.7-18.9,27.1-29.2,40
		C608.5,374.2,616.9,382.8,621.7,376.7z"/>
	<path class="st0" d="M681.2,423.5c17.2-5.1,33.1-13.7,49-22c6.8-3.6,0.8-14-6.1-10.4c-10,5.2-20.1,10.2-30.3,15
		c-2.3,1.1-4.5,2.1-6.8,3.1c1-0.4-1.6,0.6-2.1,0.9c-2.3,0.6-4.6,1.1-6.9,1.8C670.7,414.1,673.8,425.7,681.2,423.5z"/>
	<path class="st0" d="M750.3,493.2c-3.2-0.1-6.3-0.9-9.5-1.3c-5.1-0.6-10.3-1.1-15.4-1.6c-9.5-1-18.6-3.2-28-4.9
		c-7.6-1.3-10.8,10.3-3.2,11.6c9.8,1.7,19.3,4.1,29.3,5.1c5.2,0.5,10.4,1,15.6,1.6c3.8,0.5,7.5,1.4,11.3,1.5
		C758,505.4,758,493.4,750.3,493.2z"/>
</g>
</svg>
