<?xml version="1.0" encoding="utf-8"?>
<!-- Generator: Adobe Illustrator 21.0.0, SVG Export Plug-In . SVG Version: 6.00 Build 0)  -->
<svg version="1.1" id="Слой_1" xmlns="http://www.w3.org/2000/svg" xmlns:xlink="http://www.w3.org/1999/xlink" x="0px" y="0px"
	 viewBox="0 0 100 60" style="enable-background:new 0 0 100 60;" xml:space="preserve">
<style type="text/css">
	.st0{fill:#333333;}
</style>
<path class="st0" d="M85.5,27.8c-1.1-2.6-2.4-5-4.3-7c-3.1-3.1-7.2-5.2-11.5-6.3c-7.8-2-17-1.1-22.2,5.9c-0.7,0.7-1.3,1.9-1.7,2.8
	c-0.6,1.3,1.3,2.4,1.9,1.1c1.7-3.3,4.3-5.9,7.8-7.2c3.1-1.3,6.9-1.7,10.4-1.1c3.5,0.6,6.9,1.7,9.8,3.3c4.3,2.4,7,6.7,8.5,11.1
	c2.2,8.2-1.7,16.5-8,21.5c-3.5,3-8,4.4-12.4,5c-5,0.6-10,0.2-13.7-3.7c-2.6-2.8-2.2-7.8-0.4-10.9c0.9-1.7,2.6-2.8,4.3-3.3
	c2.2-0.7,4.4-0.6,6.7-0.2c1.3,0.2,2.4,0.7,3.5,1.3c0.9,0.4,2-0.2,1.7-1.3c-1.7-5.2-7-7.8-12-8.5c-5.2-0.9-10,0.7-14.1,3.9
	c-2,1.5-3.5,3.3-5.2,5.2c-4.9,5.1-10.8,9.1-17.4,11.7c-5,1.7-10.6,2.4-15.7,1.7c-1.5-0.2-2,1.9-0.6,2c9.1,1.5,18.3-1.1,25.9-6.1
	c3.9-2.6,7.4-5.6,10.6-8.9c1.5-1.9,3.1-3.5,5.2-4.8c2-1.3,4.4-2.2,6.9-2.6c2.8-0.4,5.7,0.2,8.5,1.3c1.7,0.7,3.3,1.9,4.4,3.1
	l-0.9-0.2l-4.3-0.4c-2.2,0-4.4,0.6-6.3,1.9c-4.3,2.8-5.6,8.5-4.3,13.2c1.1,4.3,5.6,7,9.8,7.8c3,0.6,6.1,0.4,9.1,0
	c2.6-0.6,5.2-1.1,7.6-2.2c8.2-3.9,14.3-12.8,13.9-22C87,32.2,86.5,30,85.5,27.8z M44.8,13.9l1.9,1.9c1.1,0.7,2.2-1.1,1.1-2h-0.2
	l-0.2-0.4l-0.9-1.1c-1.3-1.5-2.4-3-3.3-4.6c-0.9-1.1-2.8,0-2,1.1L44.8,13.9z M60.7,10.7c-0.4-2.6-0.4-5.2-0.4-7.6
	c0.2-1.5-2-1.5-2.2,0l0.6,8.2C58.9,12.7,60.9,12,60.7,10.7z M75.2,14.6l5.7-8c0.7-1.1-1.1-2.2-2-1.1l-5.4,7.4
	C72.8,14,74.2,15.7,75.2,14.6z M86.1,23.3c3.1-1.1,6.1-2.6,9.1-4.1c1.3-0.7,0.2-2.6-1.1-2c-2.3,1.2-4.5,2.3-6.9,3.3l-0.4,0.2
	l-1.3,0.4C84.3,21.5,84.8,23.7,86.1,23.3z M98.9,36.1l-1.7-0.2l-3-0.4l-5.2-0.9c-1.3-0.2-1.9,2-0.6,2.2l5.4,0.9l3,0.4l2,0.2
	C100.4,38.3,100.4,36.1,98.9,36.1z"/>
</svg>
